<svg xmlns="http://www.w3.org/2000/svg" x="0px" y="0px" width="50" height="50" viewBox="0 0 50 50">
<path d="M 13.5 3 C 12.890625 3 12.269531 3.230469 11.859375 3.664063 C 11.453125 4.097656 11.273438 4.636719 11.207031 5.175781 L 11.203125 5.195313 L 10.28125 16 L 4 16 C 3.269531 16 2.570313 16.546875 2.390625 17.1875 C 2.207031 17.828125 2.40625 18.523438 2.890625 19.007813 L 2.992188 19.105469 L 3.117188 19.171875 C 4.488281 19.9375 6.792969 20.800781 10 21.515625 L 10 22.523438 C 8.324219 23.339844 7 24.863281 7 26.902344 C 7 28.902344 8.261719 30.597656 10 31.417969 L 10 35 C 10 36.136719 10.464844 37.378906 11.214844 38.75 C 11.964844 40.117188 13.035156 41.578125 14.359375 42.9375 C 16.078125 44.695313 18.25 46.289063 20.722656 47.203125 C 21.5625 47.707031 22.546875 48 23.597656 48 L 26.402344 48 C 27.488281 48 28.503906 47.6875 29.359375 47.152344 C 31.804688 46.207031 33.949219 44.582031 35.644531 42.816406 C 36.96875 41.441406 38.035156 39.976563 38.78125 38.625 C 39.53125 37.277344 40 36.09375 40 35 L 40 31.574219 C 41.925781 30.835938 43.402344 29.097656 43.402344 26.902344 C 43.402344 24.703125 41.925781 22.964844 40 22.230469 L 40 21.535156 C 43.261719 20.789063 45.539063 19.898438 46.949219 19.195313 L 47.09375 19.121094 L 47.207031 19.007813 C 47.714844 18.5 47.871094 17.730469 47.636719 17.109375 C 47.398438 16.484375 46.730469 16 46 16 L 40.121094 16 L 39.195313 5.195313 L 39.191406 5.175781 C 39.128906 4.679688 39.007813 4.164063 38.628906 3.710938 C 38.253906 3.253906 37.609375 3 37 3 Z M 37.09375 4.992188 C 37.089844 4.984375 37.167969 5.121094 37.207031 5.421875 L 37.769531 12 L 12.632813 12 L 13.195313 5.414063 C 13.230469 5.167969 13.296875 5.054688 13.3125 5.039063 C 13.332031 5.019531 13.308594 5 13.5 5 L 37 5 C 37.191406 5 37.097656 4.996094 37.09375 4.992188 Z M 12.203125 17 L 38.195313 17 L 38.28125 18 L 44.617188 18 C 41.449219 19.316406 35.507813 21 25.300781 21 C 15.027344 21 8.585938 19.324219 5.453125 18 L 12.121094 18 Z M 12 21.914063 C 15.507813 22.546875 19.886719 23 25.300781 23 C 30.515625 23 34.667969 22.550781 38 21.9375 L 38 23.710938 L 38.796875 23.878906 C 40.273438 24.191406 41.402344 25.402344 41.402344 26.902344 C 41.402344 28.402344 40.273438 29.609375 38.796875 29.921875 L 38 30.089844 L 38 35 C 38 35.40625 37.691406 36.472656 37.035156 37.65625 C 36.378906 38.835938 35.40625 40.183594 34.203125 41.433594 C 33.507813 42.15625 32.730469 42.835938 31.898438 43.449219 C 31.960938 43.109375 32 42.757813 32 42.402344 L 32 38 C 32 35.800781 30.199219 34 28 34 L 22 34 C 19.800781 34 18 35.800781 18 38 L 18 42.402344 C 18 42.789063 18.039063 43.167969 18.113281 43.53125 C 17.277344 42.929688 16.492188 42.257813 15.792969 41.539063 C 14.59375 40.308594 13.621094 38.976563 12.96875 37.785156 C 12.3125 36.59375 12 35.511719 12 35 L 12 30.050781 L 11.28125 29.839844 C 10.003906 29.464844 9 28.21875 9 26.902344 C 9 25.457031 9.96875 24.34375 11.28125 23.957031 L 12 23.75 Z M 12 24 L 13.5 29.300781 C 13.800781 30.300781 14.699219 31 15.800781 31 L 20.300781 31 C 21.300781 31 22.300781 30.398438 22.699219 29.5 C 22.699219 29.5 23.699219 27.601563 24.402344 26.300781 C 24.5 26 24.800781 25.902344 25.097656 25.902344 C 25.398438 25.902344 25.699219 26.101563 25.800781 26.300781 L 27.402344 29.5 C 27.902344 30.398438 28.800781 31 29.800781 31 L 34.300781 31 C 35.402344 31 36.300781 30.300781 36.597656 29.300781 L 38 24 Z M 14.597656 26 L 22.300781 26 C 21.699219 27.199219 20.902344 28.597656 20.902344 28.597656 L 20.902344 28.800781 C 20.800781 28.902344 20.601563 29.097656 20.300781 29.097656 L 15.800781 29.097656 C 15.5 29.097656 15.402344 28.902344 15.402344 28.902344 Z M 27.902344 26 L 35.402344 26 L 34.699219 28.699219 C 34.699219 28.800781 34.601563 29 34.300781 29 L 29.800781 29 C 29.601563 29 29.300781 28.800781 29.199219 28.597656 Z M 22 38 L 28 38 C 29.101563 38 30 38.898438 30 40 L 30 41 L 27 44 L 27 42 C 27 40.898438 26.101563 40 25 40 C 23.898438 40 23 40.898438 23 42 L 23 44 L 20 41 L 20 40 C 20 38.898438 20.898438 38 22 38 Z"></path>
</svg>